# xmcd
#
# Track frame offsets:
#	150
#	15708
#	30966
#	48582
#	66863
#	83849
#	101800
#	116623
#	131380
#	147342
#	159971
#	176243
#	191968
#	210406
#	228092
#
# Disc length: 3275 seconds
#
# Revision: 0
# Processed by: cddbd v1.5.2PL0 Copyright (c) Steve Scherf et al.
# Submitted via: dBpowerAMP V4.0
#
DISCID=c80cc90f
DTITLE=Mariah Carey - The emancipation of Mimi
DYEAR=2005
DGENRE=Pop
TTITLE0=It's Like That
TTITLE1=We Belong Together
TTITLE2=Shake It Off
TTITLE3=Mine Again
TTITLE4=Say Somethin'
TTITLE5=Stay The Night
TTITLE6=Get Your Number
TTITLE7=One And Only
TTITLE8=Circles
TTITLE9=Your Girl
TTITLE10=I Wish I Knew
TTITLE11=To The Floor
TTITLE12=Joy Ride
TTITLE13=Fly Like A Bird
TTITLE14=Don't Forget About Us
EXTD=
EXTT0=
EXTT1=
EXTT2=
EXTT3=
EXTT4=
EXTT5=
EXTT6=
EXTT7=
EXTT8=
EXTT9=
EXTT10=
EXTT11=
EXTT12=
EXTT13=
EXTT14=
PLAYORDER=
